<svg xmlns="http://www.w3.org/2000/svg" version="1.1" xmlns:xlink="http://www.w3.org/1999/xlink" xmlns:svgjs="http://svgjs.dev/svgjs" width="128" height="128" viewBox="0 0 128 128"><g transform="matrix(0.8046875,0,0,0.8046875,12.41184074821259,12.814873242367177)"><svg viewBox="0 0 98 98" data-background-color="#ffffff" preserveAspectRatio="xMidYMid meet" height="127" width="128" xmlns="http://www.w3.org/2000/svg" xmlns:xlink="http://www.w3.org/1999/xlink"><g id="tight-bounds" transform="matrix(1,0,0,1,0.08387967645792571,0.08387967645792571)"><svg viewBox="0 0 97.83224064708415 97.83224064708415" height="97.83224064708415" width="97.83224064708415"><g><svg></svg></g><g><svg viewBox="0 0 97.83224064708415 97.83224064708415" height="97.83224064708415" width="97.83224064708415"><g><path d="M0 48.916c0-27.016 21.9-48.916 48.916-48.916 27.016 0 48.916 21.9 48.916 48.916 0 27.016-21.9 48.916-48.916 48.916-27.016 0-48.916-21.9-48.916-48.916zM48.916 93.244c24.481 0 44.328-19.846 44.328-44.328 0-24.481-19.846-44.328-44.328-44.327-24.481 0-44.328 19.846-44.327 44.327 0 24.481 19.846 44.328 44.327 44.328z" data-fill-palette-color="tertiary" fill="#ffdb99" stroke="transparent"></path><ellipse rx="46.95947551060039" ry="46.95947551060039" cx="48.916120323542074" cy="48.916120323542074" fill="#ffdb99" stroke="transparent" stroke-width="0" fill-opacity="1" data-fill-palette-color="tertiary"></ellipse></g><g transform="matrix(1,0,0,1,23.533568550424793,23.47539391502934)"><svg viewBox="0 0 50.76510354623456 50.88145281702547" height="50.88145281702547" width="50.76510354623456"><g><svg viewBox="0 0 50.76510354623456 50.88145281702547" height="50.88145281702547" width="50.76510354623456"><g><svg viewBox="0 0 50.76510354623456 50.88145281702547" height="50.88145281702547" width="50.76510354623456"><g id="textblocktransform"><svg viewBox="0 0 50.76510354623456 50.88145281702547" height="50.88145281702547" width="50.76510354623456" id="textblock"><g><svg viewBox="0 0 50.76510354623456 50.88145281702547" height="50.88145281702547" width="50.76510354623456"><g><svg viewBox="0 0 50.76510354623456 50.88145281702547" height="50.88145281702547" width="50.76510354623456"><g><svg xmlns="http://www.w3.org/2000/svg" xmlns:xlink="http://www.w3.org/1999/xlink" version="1.1" x="0" y="0" viewBox="1.1063481343977652 0.819114179821054 97.40065186560223 97.62388582017894" enable-background="new 0 0 100 100" xml:space="preserve" height="50.88145281702547" width="50.76510354623456" class="icon-icon-0" data-fill-palette-color="quaternary" id="icon-0"><path fill="#1f0f53" d="M98.334 28.896c0.36-7.307-2.236-14.735-7.835-20.302C80.012-1.818 63.066-1.768 52.652 8.718c-4.513 4.542-7.053 10.297-7.637 16.207-1.069 4.739-3.41 9.243-7.082 12.942-3.675 3.698-8.165 6.069-12.891 7.17-5.908 0.624-11.645 3.201-16.162 7.743C-1.534 63.267-1.478 80.212 9.008 90.625c5.612 5.576 13.072 8.12 20.393 7.702l-0.046 0.116c15.102-0.597 33.425-7.547 47.623-21.839 14.199-14.293 21.034-32.668 21.529-47.775L98.334 28.896zM55.924 28.279c-4.741 23.419-25.5 27.847-30.526 28.561C25.228 56.892 25.049 57 24.863 57c-0.029 0-0.058 0-0.086 0-1.984 0-2.143-1.846-2.148-1.923-0.05-0.656 0.284-1.99 1.906-2.198 3.829-0.489 23.148-4.032 27.47-25.38 0.219-1.083 1.276-1.788 2.356-1.573C55.443 26.146 56.144 27.196 55.924 28.279z" data-fill-palette-color="quaternary"></path></svg></g></svg></g></svg></g></svg></g></svg></g><g></g></svg></g></svg></g></svg></g><defs></defs></svg><rect width="97.83224064708415" height="97.83224064708415" fill="none" stroke="none" visibility="hidden"></rect></g></svg></g></svg>